<?xml version="1.0" standalone="no"?>
<!DOCTYPE svg PUBLIC "-//W3C//DTD SVG 20010904//EN"
 "http://www.w3.org/TR/2001/REC-SVG-20010904/DTD/svg10.dtd">
<svg version="1.0" xmlns="http://www.w3.org/2000/svg"
 width="1212.000000pt" height="1212.000000pt" viewBox="0 0 1212.000000 1212.000000"
 preserveAspectRatio="xMidYMid meet">
<metadata>
Created by potrace 1.14, written by Peter Selinger 2001-2017
</metadata>
<g transform="translate(0.000000,1212.000000) scale(0.100000,-0.100000)"
fill="#000000" stroke="none">
<path d="M9300 11626 c-201 -201 -366 -370 -368 -376 -4 -10 128 -143 469
-474 374 -362 446 -432 464 -447 11 -9 30 -27 41 -40 12 -13 59 -61 105 -105
46 -45 246 -248 444 -450 587 -600 768 -782 779 -780 16 3 444 434 438 441 -3
3 2 5 11 5 9 0 17 4 17 10 0 5 61 71 136 146 l136 137 -6 151 c-3 83 -10 171
-15 195 -5 24 -8 55 -6 68 1 12 -2 23 -7 23 -5 0 -8 8 -7 18 1 9 0 20 -1 25
-1 4 -4 16 -5 27 -1 11 -3 21 -5 23 -1 1 -3 10 -5 21 -11 58 -28 126 -41 159
-8 20 -13 41 -12 45 1 8 0 12 -59 162 -25 63 -61 144 -79 180 -19 35 -34 68
-34 72 0 12 -132 222 -142 226 -4 2 -8 8 -8 14 0 5 -6 15 -12 22 -7 7 -26 30
-43 51 -16 21 -38 45 -47 54 -10 8 -18 18 -18 22 0 11 -155 161 -230 223 -41
33 -77 64 -80 67 -7 9 -168 112 -220 141 -25 14 -61 34 -80 45 -50 27 -213 97
-290 123 -36 12 -72 25 -80 28 -8 3 -19 6 -25 8 -265 71 -403 94 -600 101
l-150 5 -365 -366z"/>
<path d="M8338 10652 c-287 -291 -378 -385 -378 -393 0 -5 -7 -9 -17 -9 -9 0
-14 -3 -11 -6 4 -3 -48 -62 -115 -130 -67 -69 -183 -188 -257 -265 -74 -77
-189 -195 -255 -263 -66 -68 -182 -188 -258 -267 -77 -79 -194 -200 -261 -269
-67 -69 -234 -242 -371 -385 -138 -143 -306 -318 -375 -389 -69 -71 -183 -190
-255 -264 -292 -303 -416 -430 -527 -543 -65 -65 -118 -121 -118 -123 0 -3
-55 -61 -122 -130 -318 -322 -393 -400 -391 -408 2 -4 -3 -8 -11 -8 -8 0 -16
-4 -18 -10 -3 -9 -64 -73 -358 -375 -69 -71 -245 -254 -390 -405 -145 -151
-312 -324 -371 -385 -59 -60 -171 -174 -248 -253 -77 -79 -139 -144 -138 -146
2 -2 -85 -92 -386 -397 -75 -76 -137 -141 -137 -143 0 -3 -55 -60 -123 -129
-146 -149 -286 -293 -632 -652 -142 -149 -314 -326 -382 -395 -68 -68 -123
-126 -123 -129 0 -3 -53 -60 -119 -126 -253 -256 -343 -350 -352 -366 -5 -11
-9 -431 -9 -1043 l0 -1026 1036 0 1036 0 166 163 c91 89 244 239 340 332 96
94 248 243 339 333 91 89 167 162 169 162 3 0 79 74 170 165 91 91 170 165
176 165 5 0 6 4 3 10 -3 6 1 10 10 10 9 0 13 5 10 10 -3 5 -2 10 4 10 6 0 87
75 180 168 93 92 246 241 339 332 158 154 248 242 682 664 91 89 242 235 335
326 663 645 838 815 991 966 96 94 174 169 174 167 0 -3 81 76 180 174 99 98
266 261 370 363 105 102 262 255 349 340 87 85 237 231 332 324 96 93 244 237
329 321 85 83 322 313 525 510 204 197 438 425 520 506 83 80 228 222 324 315
323 315 522 508 687 673 l166 163 -44 45 c-23 25 -53 56 -65 69 -13 13 -23 21
-23 17 0 -3 -94 89 -210 205 -115 116 -210 209 -210 206 0 -5 -409 398 -678
669 -331 332 -849 856 -950 961 -51 52 -101 100 -110 105 -15 8 -40 -12 -144
-117z"/>
</g>
</svg>
