<?xml version="1.0" standalone="no"?>
<!DOCTYPE svg PUBLIC "-//W3C//DTD SVG 20010904//EN"
 "http://www.w3.org/TR/2001/REC-SVG-20010904/DTD/svg10.dtd">
<svg version="1.0" xmlns="http://www.w3.org/2000/svg"
 width="1542.000000pt" height="1542.000000pt" viewBox="0 0 1542.000000 1542.000000"
 preserveAspectRatio="xMidYMid meet">
<metadata>
Created by potrace 1.11, written by Peter Selinger 2001-2013
</metadata>
<g transform="translate(0.000000,1542.000000) scale(0.100000,-0.100000)"
fill="#000000" stroke="none">
<path d="M12017 15414 c-1 -1 -37 -4 -79 -8 -332 -28 -691 -166 -963 -372
-105 -79 -152 -123 -538 -509 l-355 -355 2040 -2040 c1122 -1122 2044 -2040
2049 -2040 14 0 752 744 814 820 166 204 295 457 366 718 15 56 28 106 28 110
1 7 7 45 16 97 25 146 25 459 -1 590 -2 11 -8 45 -14 75 -5 30 -21 93 -34 140
-21 77 -34 115 -78 230 -46 122 -198 374 -295 490 -63 75 -1550 1562 -1605
1605 -28 22 -56 45 -62 51 -29 28 -207 141 -289 183 -215 111 -420 173 -682
207 -45 6 -312 13 -318 8z"/>
<path d="M5641 9728 c-2070 -2070 -3776 -3781 -3790 -3803 -47 -70 -72 -144
-78 -232 -6 -82 10 -198 28 -209 5 -3 9 -12 9 -19 0 -27 68 -121 121 -169 61
-55 145 -97 222 -112 122 -24 261 3 360 69 47 31 7567 7540 7567 7556 0 3
-152 158 -338 344 l-338 338 -3763 -3763z"/>
<path d="M6967 8332 c-2088 -2088 -3797 -3802 -3797 -3809 0 -6 -6 -18 -13
-25 -43 -48 -119 -219 -142 -323 -4 -16 -9 -39 -12 -50 -2 -11 -7 -66 -10
-123 -19 -348 151 -675 449 -865 93 -60 199 -101 348 -135 77 -18 314 -8 405
17 105 29 249 98 327 157 68 51 7598 7572 7598 7589 0 6 -305 315 -678 688
l-677 677 -3798 -3798z"/>
<path d="M9036 6315 c-2796 -2797 -3772 -3779 -3794 -3818 -61 -109 -81 -226
-56 -345 19 -92 60 -168 130 -239 99 -102 226 -150 368 -140 108 7 148 20 231
72 30 19 1576 1558 3813 3795 l3764 3763 -339 339 c-186 186 -341 338 -345
338 -3 0 -1701 -1694 -3772 -3765z"/>
<path d="M1176 4692 c-4 -11 -8 -29 -10 -39 -2 -10 -12 -47 -21 -83 -9 -36
-18 -72 -20 -80 -2 -8 -15 -62 -30 -120 -15 -58 -28 -112 -30 -120 -2 -8 -24
-98 -50 -200 -26 -102 -48 -192 -50 -200 -2 -8 -15 -62 -30 -120 -15 -58 -28
-112 -30 -120 -2 -8 -24 -98 -50 -200 -26 -102 -48 -192 -50 -200 -2 -8 -15
-62 -30 -120 -15 -58 -29 -112 -31 -120 -2 -8 -11 -44 -19 -80 -9 -36 -18 -73
-20 -83 -2 -10 -7 -27 -10 -37 -3 -10 -8 -27 -10 -37 -2 -10 -24 -100 -50
-201 -26 -101 -48 -191 -50 -200 -2 -9 -24 -100 -50 -202 -26 -102 -48 -192
-50 -200 -2 -8 -15 -62 -30 -120 -15 -58 -28 -112 -30 -120 -2 -11 -82 -327
-111 -440 -7 -28 -26 -105 -29 -120 -2 -8 -20 -80 -40 -160 -20 -80 -38 -152
-40 -160 -2 -8 -20 -80 -40 -160 -20 -80 -39 -154 -41 -165 -2 -11 -30 -122
-62 -247 -42 -164 -54 -228 -45 -228 7 0 428 104 936 231 507 127 930 232 940
234 10 2 27 7 37 10 10 3 27 8 37 10 10 2 83 20 163 40 80 20 152 38 160 40 8
2 80 20 160 40 80 20 152 38 160 40 8 2 143 36 300 75 157 40 292 73 300 75 8
2 35 8 60 15 25 7 52 14 60 15 39 9 1330 334 1350 340 l22 7 -25 17 c-65 42
-191 201 -257 324 -72 134 -133 318 -164 500 -6 30 -11 37 -24 33 -9 -3 -44
-8 -76 -12 -33 -3 -69 -8 -80 -10 -27 -5 -245 -6 -271 0 -11 2 -53 7 -94 10
-41 4 -77 9 -81 11 -3 2 -24 6 -48 10 -64 9 -241 61 -328 95 -377 150 -696
412 -917 751 -156 240 -264 539 -292 805 -4 38 -9 78 -11 89 -11 61 -2 287 15
380 l8 45 -36 6 c-170 29 -363 98 -500 179 -137 80 -269 188 -311 254 -25 39
-28 42 -34 23z"/>
</g>
</svg>
